<svg id="wave" style="transform:rotate(0deg); transition: 0.3s" viewBox="0 0 1440 220" version="1.1" xmlns="http://www.w3.org/2000/svg"><defs><linearGradient id="sw-gradient-0" x1="0" x2="0" y1="1" y2="0"><stop stop-color="rgba(255, 255, 255, 1)" offset="0%"></stop><stop stop-color="rgba(255, 255, 255, 1)" offset="100%"></stop></linearGradient></defs><path style="transform:translate(0, 0px); opacity:1" fill="url(#sw-gradient-0)" d="M0,0L20,3.7C40,7,80,15,120,29.3C160,44,200,66,240,66C280,66,320,44,360,29.3C400,15,440,7,480,29.3C520,51,560,103,600,106.3C640,110,680,66,720,69.7C760,73,800,125,840,121C880,117,920,59,960,44C1000,29,1040,59,1080,80.7C1120,103,1160,117,1200,113.7C1240,110,1280,88,1320,88C1360,88,1400,110,1440,99C1480,88,1520,44,1560,47.7C1600,51,1640,103,1680,110C1720,117,1760,81,1800,66C1840,51,1880,59,1920,84.3C1960,110,2000,154,2040,161.3C2080,169,2120,139,2160,110C2200,81,2240,51,2280,36.7C2320,22,2360,22,2400,22C2440,22,2480,22,2520,22C2560,22,2600,22,2640,40.3C2680,59,2720,95,2760,124.7C2800,154,2840,176,2860,187L2880,198L2880,220L2860,220C2840,220,2800,220,2760,220C2720,220,2680,220,2640,220C2600,220,2560,220,2520,220C2480,220,2440,220,2400,220C2360,220,2320,220,2280,220C2240,220,2200,220,2160,220C2120,220,2080,220,2040,220C2000,220,1960,220,1920,220C1880,220,1840,220,1800,220C1760,220,1720,220,1680,220C1640,220,1600,220,1560,220C1520,220,1480,220,1440,220C1400,220,1360,220,1320,220C1280,220,1240,220,1200,220C1160,220,1120,220,1080,220C1040,220,1000,220,960,220C920,220,880,220,840,220C800,220,760,220,720,220C680,220,640,220,600,220C560,220,520,220,480,220C440,220,400,220,360,220C320,220,280,220,240,220C200,220,160,220,120,220C80,220,40,220,20,220L0,220Z"></path></svg>