<svg xmlns="http://www.w3.org/2000/svg" viewBox="0 0 1440 320"><path fill="#ffffff" fill-opacity="1" d="M0,0L21.8,32C43.6,64,87,128,131,165.3C174.5,203,218,213,262,229.3C305.5,245,349,267,393,234.7C436.4,203,480,117,524,117.3C567.3,117,611,203,655,218.7C698.2,235,742,181,785,160C829.1,139,873,149,916,165.3C960,181,1004,203,1047,224C1090.9,245,1135,267,1178,240C1221.8,213,1265,139,1309,133.3C1352.7,128,1396,192,1418,224L1440,256L1440,0L1418.2,0C1396.4,0,1353,0,1309,0C1265.5,0,1222,0,1178,0C1134.5,0,1091,0,1047,0C1003.6,0,960,0,916,0C872.7,0,829,0,785,0C741.8,0,698,0,655,0C610.9,0,567,0,524,0C480,0,436,0,393,0C349.1,0,305,0,262,0C218.2,0,175,0,131,0C87.3,0,44,0,22,0L0,0Z"></path></svg>