<svg xmlns="http://www.w3.org/2000/svg" viewBox="0 0 1440 320"><path fill="#ffffff" fill-opacity="1" d="M0,160L12.6,138.7C25.3,117,51,75,76,53.3C101.1,32,126,32,152,32C176.8,32,202,32,227,37.3C252.6,43,278,53,303,69.3C328.4,85,354,107,379,112C404.2,117,429,107,455,112C480,117,505,139,531,128C555.8,117,581,75,606,58.7C631.6,43,657,53,682,96C707.4,139,733,213,758,250.7C783.2,288,808,288,834,282.7C858.9,277,884,267,909,218.7C934.7,171,960,85,985,64C1010.5,43,1036,85,1061,96C1086.3,107,1112,85,1137,69.3C1162.1,53,1187,43,1213,69.3C1237.9,96,1263,160,1288,170.7C1313.7,181,1339,139,1364,106.7C1389.5,75,1415,53,1427,42.7L1440,32L1440,320L1427.4,320C1414.7,320,1389,320,1364,320C1338.9,320,1314,320,1288,320C1263.2,320,1238,320,1213,320C1187.4,320,1162,320,1137,320C1111.6,320,1086,320,1061,320C1035.8,320,1011,320,985,320C960,320,935,320,909,320C884.2,320,859,320,834,320C808.4,320,783,320,758,320C732.6,320,707,320,682,320C656.8,320,632,320,606,320C581.1,320,556,320,531,320C505.3,320,480,320,455,320C429.5,320,404,320,379,320C353.7,320,328,320,303,320C277.9,320,253,320,227,320C202.1,320,177,320,152,320C126.3,320,101,320,76,320C50.5,320,25,320,13,320L0,320Z"></path></svg>